<svg width="48" height="48" viewBox="0 0 48 48" fill="none" xmlns="http://www.w3.org/2000/svg">
<g id="Cube">
<path id="Vector" d="M37.9286 13.9628L24.293 22.1959L10.6574 13.9628C10.4934 13.8639 10.3572 13.7216 10.2625 13.5501C10.1678 13.3787 10.1179 13.1842 10.1179 12.9862C10.1179 12.7882 10.1678 12.5937 10.2625 12.4222C10.3572 12.2508 10.4934 12.1085 10.6574 12.0095L22.6111 4.79118C23.1225 4.48245 23.7025 4.31992 24.293 4.31992C24.8834 4.31992 25.4635 4.48245 25.9748 4.79118L37.9286 12.0095C38.0926 12.1085 38.2288 12.2508 38.3235 12.4222C38.4182 12.5937 38.468 12.7882 38.468 12.9862C38.468 13.1842 38.4182 13.3787 38.3235 13.5501C38.2288 13.7216 38.0926 13.8639 37.9286 13.9628ZM7.04298 18.9404V32.9064C7.04165 33.5466 7.2007 34.1759 7.5043 34.7317C7.8079 35.2876 8.24544 35.7505 8.77337 36.0745L20.5195 43.1689C20.6833 43.2678 20.8692 43.3199 21.0583 43.3199C21.2475 43.32 21.4333 43.268 21.5972 43.1692C21.761 43.0703 21.8972 42.9282 21.9919 42.757C22.0866 42.5857 22.1365 42.3915 22.1367 42.1936V26.1024L8.66016 17.9652C8.49635 17.8663 8.31053 17.8142 8.12138 17.8141C7.93222 17.8141 7.74638 17.8661 7.58252 17.9649C7.41866 18.0637 7.28254 18.2059 7.18783 18.3771C7.09313 18.5483 7.04317 18.7426 7.04298 18.9404ZM41.543 32.9064V18.9404C41.5428 18.7426 41.4928 18.5483 41.3981 18.3771C41.3034 18.2059 41.1673 18.0637 41.0034 17.9649C40.8396 17.8661 40.6537 17.8141 40.4646 17.8141C40.2754 17.8142 40.0896 17.8663 39.9258 17.9652L26.4492 26.1024V42.1936C26.4494 42.3915 26.4994 42.5857 26.5941 42.757C26.6888 42.9282 26.8249 43.0703 26.9888 43.1692C27.1526 43.268 27.3385 43.32 27.5276 43.3199C27.7168 43.3199 27.9026 43.2678 28.0664 43.1689L39.8099 36.0745C40.3383 35.7509 40.7764 35.2881 41.0805 34.7322C41.3846 34.1763 41.544 33.5468 41.543 32.9064Z" fill="#EEEDEE" fill-opacity="0.68"/>
</g>
</svg>
