<svg width="64" height="64" viewBox="0 0 64 64" fill="none" xmlns="http://www.w3.org/2000/svg">
<g id="ic:baseline-discord">
<path id="Vector" d="M51.3867 14.2133C47.84 12.56 44 11.36 40 10.6667C39.9649 10.6656 39.93 10.6721 39.8978 10.686C39.8655 10.6998 39.8367 10.7205 39.8133 10.7467C39.3333 11.6267 38.7733 12.7733 38.4 13.6533C34.1573 13.0133 29.8427 13.0133 25.6 13.6533C25.2267 12.7467 24.6667 11.6267 24.16 10.7467C24.1333 10.6933 24.0533 10.6667 23.9733 10.6667C19.9733 11.36 16.16 12.56 12.5867 14.2133C12.56 14.2133 12.5333 14.24 12.5067 14.2667C5.25332 25.12 3.25332 35.68 4.23999 46.1333C4.23999 46.1867 4.26665 46.24 4.31999 46.2667C9.11999 49.7867 13.7333 51.92 18.2933 53.3333C18.3733 53.36 18.4533 53.3333 18.48 53.28C19.5467 51.8133 20.5067 50.2667 21.3333 48.64C21.3867 48.5333 21.3333 48.4267 21.2267 48.4C19.7067 47.8133 18.2667 47.12 16.8533 46.32C16.7467 46.2667 16.7467 46.1067 16.8267 46.0267C17.12 45.8133 17.4133 45.5733 17.7067 45.36C17.76 45.3067 17.84 45.3067 17.8933 45.3333C27.0667 49.52 36.96 49.52 46.0267 45.3333C46.08 45.3067 46.16 45.3067 46.2133 45.36C46.5067 45.6 46.8 45.8133 47.0933 46.0533C47.2 46.1333 47.2 46.2933 47.0666 46.3467C45.68 47.1733 44.2133 47.84 42.6933 48.4267C42.5867 48.4533 42.56 48.5867 42.5867 48.6667C43.44 50.2933 44.4 51.84 45.44 53.3067C45.52 53.3333 45.6 53.36 45.68 53.3333C50.2666 51.92 54.88 49.7867 59.68 46.2667C59.7333 46.24 59.76 46.1867 59.76 46.1333C60.9333 34.0533 57.8133 23.5733 51.4933 14.2667C51.4666 14.24 51.44 14.2133 51.3867 14.2133ZM22.72 39.76C19.9733 39.76 17.68 37.2267 17.68 34.1067C17.68 30.9867 19.92 28.4533 22.72 28.4533C25.5467 28.4533 27.7867 31.0133 27.76 34.1067C27.76 37.2267 25.52 39.76 22.72 39.76ZM41.3067 39.76C38.56 39.76 36.2667 37.2267 36.2667 34.1067C36.2667 30.9867 38.5067 28.4533 41.3067 28.4533C44.1333 28.4533 46.3733 31.0133 46.3466 34.1067C46.3466 37.2267 44.1333 39.76 41.3067 39.76Z" fill="#EEEDEE" fill-opacity="0.87"/>
</g>
</svg>
