<svg width="64" height="64" viewBox="0 0 64 64" fill="none" xmlns="http://www.w3.org/2000/svg">
<g id="Frame 19">
<rect width="64" height="64" rx="16" fill="#6AFF67" fill-opacity="0.2"/>
<g id="aspect_ratio">
<mask id="mask0_597_818" style="mask-type:alpha" maskUnits="userSpaceOnUse" x="16" y="16" width="32" height="32">
<rect id="Bounding box" x="16" y="16" width="32" height="32" fill="#D9D9D9"/>
</mask>
<g mask="url(#mask0_597_818)">
<path id="aspect_ratio_2" d="M34.6665 38.6668H41.3332V32.0001H38.6665V36.0001H34.6665V38.6668ZM22.6665 32.0001H25.3332V28.0001H29.3332V25.3334H22.6665V32.0001ZM21.3332 42.6668C20.5998 42.6668 19.9721 42.4056 19.4498 41.8834C18.9276 41.3612 18.6665 40.7334 18.6665 40.0001V24.0001C18.6665 23.2668 18.9276 22.639 19.4498 22.1168C19.9721 21.5945 20.5998 21.3334 21.3332 21.3334H42.6665C43.3998 21.3334 44.0276 21.5945 44.5498 22.1168C45.0721 22.639 45.3332 23.2668 45.3332 24.0001V40.0001C45.3332 40.7334 45.0721 41.3612 44.5498 41.8834C44.0276 42.4056 43.3998 42.6668 42.6665 42.6668H21.3332Z" fill="#6AFF67"/>
</g>
</g>
</g>
</svg>
