<svg width="64" height="64" viewBox="0 0 64 64" fill="none" xmlns="http://www.w3.org/2000/svg">
<g id="Frame 19">
<rect width="64" height="64" rx="16" fill="#FF725F" fill-opacity="0.2"/>
<g id="assistant_direction">
<mask id="mask0_597_834" style="mask-type:alpha" maskUnits="userSpaceOnUse" x="16" y="16" width="32" height="32">
<rect id="Bounding box" x="16" y="16" width="32" height="32" fill="#D9D9D9"/>
</mask>
<g mask="url(#mask0_597_834)">
<path id="assistant_direction_2" d="M32.0002 46.6668C29.9779 46.6668 28.0724 46.2834 26.2835 45.5168C24.4946 44.7501 22.9391 43.7056 21.6168 42.3834C20.2946 41.0612 19.2502 39.5056 18.4835 37.7168C17.7168 35.9279 17.3335 34.0223 17.3335 32.0001C17.3335 29.9556 17.7168 28.0445 18.4835 26.2668C19.2502 24.489 20.2946 22.939 21.6168 21.6168C22.9391 20.2945 24.4946 19.2501 26.2835 18.4834C28.0724 17.7168 29.9779 17.3334 32.0002 17.3334C34.0446 17.3334 35.9557 17.7168 37.7335 18.4834C39.5113 19.2501 41.0613 20.2945 42.3835 21.6168C43.7057 22.939 44.7502 24.489 45.5168 26.2668C46.2835 28.0445 46.6668 29.9556 46.6668 32.0001C46.6668 34.0223 46.2835 35.9279 45.5168 37.7168C44.7502 39.5056 43.7057 41.0612 42.3835 42.3834C41.0613 43.7056 39.5113 44.7501 37.7335 45.5168C35.9557 46.2834 34.0446 46.6668 32.0002 46.6668ZM31.1668 42.3668C31.3891 42.589 31.6446 42.7001 31.9335 42.7001C32.2224 42.7001 32.4779 42.589 32.7002 42.3668L42.3002 32.7668C42.5224 32.5445 42.6335 32.2779 42.6335 31.9668C42.6335 31.6556 42.5224 31.389 42.3002 31.1668L32.7002 21.5668C32.4779 21.3445 32.2224 21.2334 31.9335 21.2334C31.6446 21.2334 31.3891 21.3445 31.1668 21.5668L21.5668 31.1668C21.3446 31.389 21.2335 31.6556 21.2335 31.9668C21.2335 32.2779 21.3446 32.5445 21.5668 32.7668L31.1668 42.3668ZM26.6335 35.9668V30.6334C26.6335 30.2334 26.7557 29.9112 27.0002 29.6668C27.2446 29.4223 27.5668 29.3001 27.9668 29.3001H33.5002L32.1002 27.8334L33.9668 25.9668L38.6335 30.6334L33.9668 35.3001L32.1002 33.4334L33.5002 31.9668H29.3002V35.9668H26.6335Z" fill="#FF725F"/>
</g>
</g>
</g>
</svg>
