<svg width="66" height="20" viewBox="0 0 66 20" fill="none" xmlns="http://www.w3.org/2000/svg">
<g clip-path="url(#clip0_603_4191)">
<g clip-path="url(#clip1_603_4191)">
<path d="M9.28317 8.82132V11.2517L8.85115 11.4291L2.11879 4.68038V11.7982L5.51244 15.1708H2.49299L0 12.6875V0.177786L0.431299 0L9.28317 8.82132ZM12.4071 20L12.8384 19.8222V7.31247L10.3454 4.82919H7.34394L10.7196 8.20175V15.3196L3.98727 8.57092L3.55526 8.74835V11.1787L12.4071 20Z" fill="#EEEDEE"/>
</g>
<path d="M63.5103 13.2751V7.06604H65.3994V13.2751H63.5103Z" fill="#EEEDEE"/>
<path d="M55.1646 11.6333L55.1433 11.2879H56.815L56.8448 11.4584C56.8932 11.7342 57.0765 11.9275 57.3949 12.0384C57.7134 12.1493 58.2379 12.2047 58.9685 12.2047C59.6736 12.2047 60.1697 12.1479 60.4568 12.0341C60.7468 11.9176 60.8918 11.7584 60.8918 11.5565C60.8918 11.3859 60.7411 11.258 60.4398 11.1727C60.1384 11.0874 59.4632 10.9851 58.4142 10.8657C57.2372 10.7178 56.4212 10.4861 55.9664 10.1706C55.5115 9.85501 55.284 9.42998 55.284 8.8955C55.284 8.27573 55.5726 7.79527 56.1497 7.45411C56.7268 7.11011 57.5868 6.93811 58.7297 6.93811C59.9067 6.93811 60.7951 7.08879 61.395 7.39014C61.9949 7.68866 62.3204 8.14211 62.3716 8.75051L62.3886 8.97226H60.7383L60.7127 8.86565C60.6786 8.67233 60.5293 8.5117 60.2649 8.38376C60.0005 8.25299 59.4988 8.1876 58.7596 8.1876C58.1341 8.1876 57.6949 8.23877 57.4419 8.34112C57.1917 8.44347 57.0666 8.57851 57.0666 8.74624C57.0666 8.88555 57.2059 9.00211 57.4845 9.09593C57.766 9.18975 58.4497 9.29636 59.5357 9.41577C60.6843 9.56076 61.4931 9.75834 61.9622 10.0085C62.4313 10.2587 62.6658 10.6908 62.6658 11.3049C62.6658 11.9759 62.3574 12.4933 61.7404 12.8572C61.1264 13.2211 60.2152 13.403 59.0069 13.403C57.7958 13.403 56.8619 13.258 56.2052 12.9681C55.5513 12.6781 55.2044 12.2332 55.1646 11.6333Z" fill="#EEEDEE"/>
<path d="M48.2178 13.2751V7.06604H54.4909V8.48611H49.9577V9.54796H54.0857V10.7591H49.9577V11.9147H54.5676V13.2751H48.2178Z" fill="#EEEDEE"/>
<path d="M39.5098 13.2751V7.06604H41.3734V9.28783H44.9044V7.06604H46.7679V13.2751H44.9044V10.8444H41.3734V13.2751H39.5098Z" fill="#EEEDEE"/>
<path d="M26.533 10.0938V10.162C26.533 9.09877 26.9666 8.29563 27.8337 7.75262C28.7008 7.20961 29.774 6.93811 31.0534 6.93811C32.3298 6.93811 33.4045 7.20961 34.2773 7.75262C35.1501 8.29563 35.5865 9.09877 35.5865 10.162V10.0938C35.5865 11.1997 35.1501 12.0285 34.2773 12.58C33.4045 13.1287 32.3298 13.403 31.0534 13.403C29.7769 13.403 28.7036 13.1287 27.8337 12.58C26.9666 12.0285 26.533 11.1997 26.533 10.0938ZM28.4819 10.1194C28.4819 10.7932 28.7178 11.3007 29.1898 11.6418C29.6646 11.9801 30.2886 12.1536 31.0619 12.1621C31.8295 12.1735 32.4507 12.0043 32.9255 11.6546C33.4002 11.3049 33.6376 10.796 33.6376 10.1279V10.162C33.6376 9.52522 33.4002 9.04618 32.9255 8.72492C32.4535 8.40082 31.8323 8.23309 31.0619 8.22171C30.2829 8.21319 29.6575 8.37524 29.1855 8.70786C28.7164 9.04049 28.4819 9.5238 28.4819 10.1578V10.1194Z" fill="#EEEDEE"/>
<path d="M18.631 13.2751V7.06604H20.4349L23.8635 10.8316C23.9061 10.8742 23.9402 10.9069 23.9658 10.9296C23.9943 10.9524 24.0184 10.9751 24.0383 10.9979H24.0596C24.054 10.9353 24.0497 10.8856 24.0469 10.8486C24.0469 10.8117 24.0469 10.7619 24.0469 10.6994V7.06604H25.6162V13.2751H23.8677L20.405 9.4584C20.3595 9.41007 20.3211 9.37312 20.2899 9.34753C20.2614 9.3191 20.2344 9.28783 20.2088 9.25371H20.1918C20.1946 9.28498 20.196 9.31626 20.196 9.34753C20.1989 9.37596 20.2003 9.40155 20.2003 9.42429L20.2088 13.2751H18.631Z" fill="#EEEDEE"/>
</g>
<defs>
<clipPath id="clip0_603_4191">
<rect width="65.3993" height="20" fill="white"/>
</clipPath>
<clipPath id="clip1_603_4191">
<rect width="12.8384" height="20" fill="white"/>
</clipPath>
</defs>
</svg>
