<svg width="24" height="24" viewBox="0 0 24 24" fill="none" xmlns="http://www.w3.org/2000/svg">
<g id="UsersThree">
<path id="Vector" d="M6.01077 13.8561C6.01332 13.9069 6.0055 13.9577 5.98779 14.0054C5.97009 14.0531 5.94287 14.0967 5.90779 14.1335C5.87271 14.1704 5.83051 14.1997 5.78374 14.2197C5.73698 14.2397 5.68664 14.25 5.63577 14.2499H1.49952C1.33024 14.2502 1.16586 14.1931 1.03309 14.0881C0.900326 13.9831 0.806995 13.8363 0.768272 13.6715C0.74416 13.5587 0.745272 13.4419 0.771527 13.3296C0.797782 13.2173 0.848532 13.1122 0.920147 13.0218C1.58184 12.1443 2.45979 11.4533 3.46827 11.0165C3.02552 10.6128 2.68593 10.1089 2.47797 9.54696C2.27 8.98505 2.19971 8.38149 2.27297 7.78682C2.34624 7.19216 2.56092 6.6237 2.89906 6.12907C3.23719 5.63444 3.68893 5.22803 4.21642 4.94388C4.74392 4.65973 5.33183 4.50612 5.9309 4.49591C6.52998 4.48569 7.12278 4.61918 7.65966 4.88518C8.19654 5.15118 8.66186 5.54195 9.01666 6.02477C9.37146 6.50758 9.6054 7.06839 9.6989 7.66021C9.71097 7.7398 9.69671 7.82115 9.6583 7.89189C9.61988 7.96262 9.55941 8.01888 9.48608 8.05209C8.44583 8.533 7.56483 9.30144 6.94706 10.2667C6.32928 11.232 6.00051 12.3539 5.99952 13.4999C5.99952 13.6199 5.99952 13.738 6.01077 13.8561ZM23.0733 13.0208C22.4131 12.1443 21.5372 11.4538 20.5308 11.0165C20.9735 10.6128 21.3131 10.1089 21.5211 9.54696C21.729 8.98505 21.7993 8.38149 21.7261 7.78682C21.6528 7.19216 21.4381 6.6237 21.1 6.12907C20.7619 5.63444 20.3101 5.22803 19.7826 4.94388C19.2551 4.65973 18.6672 4.50612 18.0681 4.49591C17.4691 4.48569 16.8763 4.61918 16.3394 4.88518C15.8025 5.15118 15.3372 5.54195 14.9824 6.02477C14.6276 6.50758 14.3936 7.06839 14.3001 7.66021C14.2881 7.7398 14.3023 7.82115 14.3407 7.89189C14.3792 7.96262 14.4396 8.01888 14.513 8.05209C15.5532 8.533 16.4342 9.30144 17.052 10.2667C17.6698 11.232 17.9985 12.3539 17.9995 13.4999C17.9995 13.6199 17.9995 13.738 17.9883 13.8561C17.9857 13.9069 17.9935 13.9577 18.0112 14.0054C18.029 14.0531 18.0562 14.0967 18.0912 14.1335C18.1263 14.1704 18.1685 14.1997 18.2153 14.2197C18.2621 14.2397 18.3124 14.25 18.3633 14.2499H22.4995C22.6688 14.2502 22.8332 14.1931 22.966 14.0881C23.0987 13.9831 23.192 13.8363 23.2308 13.6715C23.255 13.5585 23.2539 13.4415 23.2275 13.329C23.2011 13.2165 23.15 13.1112 23.078 13.0208H23.0733ZM14.7295 17.069C15.4763 16.4971 16.0251 15.7055 16.2987 14.8056C16.5724 13.9057 16.5572 12.9427 16.2553 12.0518C15.9534 11.161 15.3799 10.3872 14.6154 9.83912C13.851 9.29106 12.934 8.99632 11.9934 8.99632C11.0528 8.99632 10.1359 9.29106 9.37142 9.83912C8.60699 10.3872 8.0335 11.161 7.73157 12.0518C7.42964 12.9427 7.41444 13.9057 7.68811 14.8056C7.96178 15.7055 8.51057 16.4971 9.25733 17.069C7.93221 17.6431 6.82571 18.6264 6.09983 19.8749C6.034 19.9889 5.99935 20.1183 5.99935 20.2499C5.99936 20.3816 6.03403 20.511 6.09988 20.625C6.16572 20.739 6.26042 20.8337 6.37446 20.8995C6.4885 20.9653 6.61786 20.9999 6.74952 20.9999H17.2495C17.3812 20.9999 17.5105 20.9653 17.6246 20.8995C17.7386 20.8337 17.8333 20.739 17.8992 20.625C17.965 20.511 17.9997 20.3816 17.9997 20.2499C17.9997 20.1183 17.965 19.9889 17.8992 19.8749C17.1718 18.6256 16.0632 17.6422 14.7361 17.069H14.7295Z" fill="#EEEDEE" fill-opacity="0.68"/>
</g>
</svg>
