<svg width="64" height="64" viewBox="0 0 64 64" fill="none" xmlns="http://www.w3.org/2000/svg">
<g id="mdi:youtube">
<path id="Vector" d="M26.6663 39.9999L40.5063 31.9999L26.6663 23.9999V39.9999ZM57.493 19.1199C57.8397 20.3733 58.0797 22.0533 58.2397 24.1866C58.4263 26.3199 58.5063 28.1599 58.5063 29.7599L58.6663 31.9999C58.6663 37.8399 58.2397 42.1332 57.493 44.8799C56.8263 47.2799 55.2797 48.8266 52.8797 49.4932C51.6263 49.8399 49.333 50.0799 45.813 50.2399C42.3463 50.4266 39.173 50.5066 36.2397 50.5066L31.9997 50.6666C20.8263 50.6666 13.8663 50.2399 11.1197 49.4932C8.71967 48.8266 7.17301 47.2799 6.50634 44.8799C6.15967 43.6266 5.91967 41.9466 5.75967 39.8133C5.57301 37.6799 5.49301 35.8399 5.49301 34.2399L5.33301 31.9999C5.33301 26.1599 5.75967 21.8666 6.50634 19.1199C7.17301 16.7199 8.71967 15.1733 11.1197 14.5066C12.373 14.1599 14.6663 13.9199 18.1863 13.7599C21.653 13.5733 24.8263 13.4933 27.7597 13.4933L31.9997 13.3333C43.173 13.3333 50.133 13.7599 52.8797 14.5066C55.2797 15.1733 56.8263 16.7199 57.493 19.1199Z" fill="#EEEDEE" fill-opacity="0.87"/>
</g>
</svg>
